<svg version="1.1" id="Layer_1" xmlns="http://www.w3.org/2000/svg" xmlns:xlink="http://www.w3.org/1999/xlink" x="0px" y="0px"
	 width="100%" viewBox="0 0 1598 2047" enable-background="new 0 0 1598 2047" xml:space="preserve">
<path fill="currentColor" opacity="1.000000" stroke="none" 
	d="
M1599.000000,9.508958 
	C1598.336060,10.485626 1597.219482,10.863017 1597.073608,11.472537 
	C1592.657227,29.938141 1588.391357,48.439754 1583.984619,66.907745 
	C1579.803711,84.428787 1575.451172,101.908783 1571.246216,119.424156 
	C1564.824219,146.174561 1558.446045,172.935562 1552.082642,199.699997 
	C1545.756226,226.308929 1539.474365,252.928452 1533.166748,279.541870 
	C1527.155762,304.903107 1521.142090,330.263794 1515.119507,355.622345 
	C1508.762329,382.389343 1502.336426,409.140167 1496.048950,435.923523 
	C1491.929443,453.471497 1488.077759,471.082733 1483.867676,488.608337 
	C1483.467407,490.274231 1481.632690,492.265717 1480.006470,492.865143 
	C1460.020630,500.232178 1439.930908,507.317352 1419.904419,514.575317 
	C1391.598877,524.833801 1363.348755,535.245117 1335.029297,545.464661 
	C1298.270508,558.729675 1261.450684,571.825256 1224.687622,585.078674 
	C1194.403320,595.996521 1164.166138,607.045349 1133.903320,618.023071 
	C1099.876709,630.365967 1065.841064,642.684021 1031.816162,655.031860 
	C1001.554321,666.014099 971.308167,677.039490 941.043945,688.015137 
	C903.252136,701.720703 865.448181,715.392578 827.650940,729.083069 
	C800.997253,738.737305 774.327332,748.347046 747.698303,758.068970 
	C711.739685,771.196960 675.848206,784.509583 639.863281,797.564941 
	C604.182373,810.510193 568.410034,823.203003 532.699097,836.065735 
	C506.028137,845.672302 479.387207,855.362244 452.740082,865.034912 
	C422.478973,876.019287 392.230103,887.037354 361.968140,898.019531 
	C327.943329,910.367432 293.909851,922.691589 259.880157,935.026184 
	C225.850632,947.360657 191.817383,959.684998 157.792664,972.032776 
	C127.530945,983.015015 97.274162,994.010986 67.027153,1005.033752 
	C62.363201,1006.733459 57.778202,1008.649109 53.123779,1010.376160 
	C51.963413,1010.806702 50.674919,1010.891907 48.616936,1011.300232 
	C51.113159,1002.614136 53.434418,994.684570 55.669975,986.730835 
	C63.138161,960.160095 70.519737,933.564819 78.042633,907.009644 
	C84.077263,885.707947 90.353500,864.474609 96.369972,843.167908 
	C104.002190,816.139160 111.414360,789.048340 119.045609,762.019287 
	C125.061462,740.711975 131.324295,719.474426 137.370285,698.175476 
	C144.644623,672.549316 151.763596,646.879089 159.029617,621.250610 
	C164.193939,603.035156 169.553116,584.874939 174.708084,566.656921 
	C178.902664,551.832947 182.957321,536.968994 186.996094,522.101624 
	C187.967850,518.524475 190.076065,516.870178 193.664719,515.580994 
	C223.808655,504.752594 253.831696,493.588135 283.906586,482.566956 
	C321.199646,468.900635 358.510620,455.283234 395.807953,441.628448 
	C429.495789,429.295166 463.175690,416.940094 496.859070,404.594574 
	C530.542419,392.249084 564.222290,379.893951 597.910095,367.560699 
	C635.207397,353.905975 672.515137,340.279938 709.812439,326.625214 
	C743.500244,314.291962 777.180054,301.936890 810.863403,289.591431 
	C844.546753,277.245911 878.230103,264.900421 911.913513,252.554962 
	C945.596924,240.209549 979.276855,227.854507 1012.964661,215.521225 
	C1050.261841,201.866486 1087.569580,188.240326 1124.866821,174.585663 
	C1158.554688,162.252411 1192.234375,149.897385 1225.917725,137.551956 
	C1259.601074,125.206497 1293.281006,112.851448 1326.968872,100.518166 
	C1364.266113,86.863434 1401.573853,73.237259 1438.871094,59.582584 
	C1472.559204,47.249294 1506.229004,34.866573 1539.926758,22.560001 
	C1558.128906,15.912500 1576.374512,9.383393 1594.587280,2.764940 
	C1595.001343,2.614542 1595.258911,2.033709 1595.294678,1.326826 
	C1596.281860,1.000000 1597.563843,1.000000 1599.000000,1.000000 
	C1599.000000,3.671691 1599.000000,6.344797 1599.000000,9.508958 
z"/>
<path fill="currentColor" opacity="1.000000" stroke="none" 
	d="
M0.999967,1657.444092 
	C1.664087,1656.514771 2.742869,1656.154419 2.931990,1655.526123 
	C8.341303,1637.559204 13.649323,1619.561768 18.998194,1601.576416 
	C28.323637,1570.219971 37.665802,1538.868530 47.000160,1507.514771 
	C56.335041,1476.159058 65.647621,1444.796875 75.009300,1413.449219 
	C84.645813,1381.181274 94.300690,1348.918945 104.001060,1316.670288 
	C114.255524,1282.579224 124.602058,1248.515991 134.840836,1214.420288 
	C137.148376,1206.736206 139.575272,1199.050781 141.199219,1191.210938 
	C142.372726,1185.545654 146.380020,1183.723755 150.800079,1182.052124 
	C186.000107,1168.739746 221.205444,1155.440918 256.440491,1142.221558 
	C287.025757,1130.746704 317.695251,1119.495483 348.248779,1107.937256 
	C384.650940,1094.166626 420.930817,1080.072754 457.335754,1066.309570 
	C486.244080,1055.380493 515.314758,1044.880493 544.215393,1033.931519 
	C577.017944,1021.504272 609.662659,1008.660522 642.466248,996.235901 
	C673.913513,984.325012 705.514404,972.820068 736.977051,960.949158 
	C765.448303,950.206909 793.788757,939.118164 822.252075,928.354919 
	C848.464539,918.442932 874.807739,908.876831 901.013184,898.946716 
	C931.115906,887.539673 961.096130,875.809631 991.193848,864.389221 
	C1015.600403,855.128296 1040.123535,846.175171 1064.555420,836.980103 
	C1087.637939,828.292908 1110.666626,819.463013 1133.722900,810.706177 
	C1154.534546,802.801880 1175.346436,794.898315 1196.167236,787.017944 
	C1217.733765,778.855347 1239.316650,770.736206 1260.882080,762.570374 
	C1281.403564,754.799866 1301.895752,746.951477 1322.429810,739.214600 
	C1344.752197,730.803955 1367.108032,722.482056 1390.353638,713.783081 
	C1388.482422,720.156189 1386.756958,726.041748 1385.026245,731.925964 
	C1377.015991,759.161255 1369.036133,786.405579 1360.984497,813.628723 
	C1352.023926,843.924744 1342.989624,874.199036 1334.001587,904.486938 
	C1324.328979,937.081787 1314.657837,969.677002 1305.013550,1002.280151 
	C1294.322388,1038.422241 1283.688110,1074.581055 1272.981812,1110.718628 
	C1262.685913,1145.470703 1252.355591,1180.212891 1241.897217,1214.916138 
	C1241.516602,1216.179321 1239.782593,1217.438477 1238.403564,1217.936646 
	C1216.862183,1225.716919 1195.244385,1233.286255 1173.706177,1241.075317 
	C1143.128906,1252.133423 1112.638794,1263.432739 1082.044800,1274.443970 
	C1046.025635,1287.407837 1009.919189,1300.129517 973.880249,1313.039062 
	C940.555725,1324.976562 907.270325,1337.023438 873.967773,1349.022339 
	C840.665161,1361.021118 807.367493,1373.033447 774.058716,1385.015137 
	C740.599670,1397.050781 707.123352,1409.038574 673.666809,1421.081299 
	C648.799927,1430.031860 623.955078,1439.043579 599.095459,1448.014282 
	C586.893005,1452.417603 574.671082,1456.767212 562.483032,1461.209839 
	C561.306396,1461.638672 560.307434,1462.555176 558.769287,1463.620605 
	C550.925781,1466.480835 543.492004,1468.835083 536.160156,1471.472900 
	C500.551666,1484.283813 464.980042,1497.197021 429.376251,1510.021240 
	C406.732422,1518.177490 384.040619,1526.200562 361.396423,1534.355835 
	C325.635986,1547.234985 289.904999,1560.196045 254.146622,1573.080811 
	C231.503464,1581.239746 208.820572,1589.288208 186.178009,1597.448730 
	C150.576721,1610.279541 115.004082,1623.190186 79.400452,1636.014648 
	C56.756748,1644.171021 34.061726,1652.185181 11.437152,1660.393799 
	C8.475976,1661.468140 5.797326,1663.321167 2.602760,1664.776855 
	C1.811798,1664.826904 1.405897,1664.913452 0.999998,1665.000000 
	C1.000000,1662.629395 1.000000,1660.258911 0.999967,1657.444092 
z"/>
<path fill="currentColor" opacity="1.000000" stroke="none" 
	d="
M2.987817,1664.813477 
	C5.797326,1663.321167 8.475976,1661.468140 11.437152,1660.393799 
	C34.061726,1652.185181 56.756748,1644.171021 79.400452,1636.014648 
	C115.004082,1623.190186 150.576721,1610.279541 186.178009,1597.448730 
	C208.820572,1589.288208 231.503464,1581.239746 254.146622,1573.080811 
	C289.904999,1560.196045 325.635986,1547.234985 361.396423,1534.355835 
	C384.040619,1526.200562 406.732422,1518.177490 429.376251,1510.021240 
	C464.980042,1497.197021 500.551666,1484.283813 536.160156,1471.472900 
	C543.492004,1468.835083 550.925781,1466.480835 558.710754,1463.980225 
	C567.642822,1469.403198 576.285706,1474.679810 584.687439,1480.315796 
	C600.651062,1491.024414 616.423462,1502.017944 632.371277,1512.750610 
	C662.768066,1533.207520 693.307251,1553.453735 723.649292,1573.991455 
	C758.978088,1597.904419 794.154541,1622.042358 829.405457,1646.070312 
	C846.493286,1657.717773 863.543884,1669.421265 880.709839,1680.952637 
	C916.604858,1705.065552 952.594666,1729.037354 988.485962,1753.155762 
	C1006.588745,1765.320679 1024.511108,1777.753784 1042.603638,1789.934448 
	C1077.662476,1813.537598 1112.783813,1837.047974 1147.870605,1860.609741 
	C1147.956543,1860.667358 1147.914062,1860.916138 1148.000244,1861.704468 
	C1140.332642,1864.335449 1132.546143,1867.082031 1124.710938,1869.682007 
	C1098.940796,1878.233643 1073.155884,1886.740845 1047.371094,1895.248169 
	C987.281738,1915.073853 927.182007,1934.868042 867.101135,1954.719604 
	C843.875977,1962.393677 820.695374,1970.202637 797.486206,1977.925293 
	C731.051392,2000.031494 664.610657,2022.119629 598.181519,2044.242676 
	C595.531555,2045.125244 592.976990,2046.294067 590.689026,2047.664795 
	C587.638733,2048.000000 584.277405,2048.000000 580.789185,2047.716309 
	C580.516174,2047.134521 580.451355,2046.712402 580.212463,2046.556030 
	C562.911072,2035.225952 545.555847,2023.977417 528.291809,2012.590576 
	C507.445709,1998.841064 486.660919,1984.998169 465.877472,1971.153809 
	C444.024567,1956.596802 422.249725,1941.922241 400.360748,1927.420044 
	C357.200409,1898.824585 314.000336,1870.288940 270.787537,1841.772949 
	C227.329605,1813.095093 183.833496,1784.475098 140.359344,1755.821899 
	C111.999023,1737.130005 83.625549,1718.458008 55.301250,1699.711670 
	C37.821354,1688.142456 20.422842,1676.450317 2.987817,1664.813477 
z"/>
</svg>